<?xml version="1.0" encoding="UTF-8" standalone="no"?> <svg id="Layer_1" data-name="Layer 1" xmlns="http://www.w3.org/2000/svg" viewBox="0 0 128 128"><defs><style>.cls-1{fill:#1d75b8;}.cls-2{fill:#2d3e50;}</style></defs><title>a</title><path class="cls-1" d="M77.18382,47.28164V41.99788a13.18382,13.18382,0,1,0-26.36764,0v5.30081a4.88484,4.88484,0,0,0-4.50263,4.8642V69.03751a4.89829,4.89829,0,0,0,4.87784,4.854H76.8086a4.8834,4.8834,0,0,0,4.87785-4.87785V52.14584A4.88614,4.88614,0,0,0,77.18382,47.28164Zm-10.93421,13.629-.31894.25072v4.3116l.0017.02729a1.84331,1.84331,0,0,1-.94316,1.69019,2.05233,2.05233,0,0,1-2.00059-.04946,1.921,1.921,0,0,1-.92441-1.64585V61.17327l-.09891-.08187-.20637-.16885a3.44692,3.44692,0,0,1-.97216-4.17857A3.50774,3.50774,0,0,1,64.643,54.711h.00341a3.57269,3.57269,0,0,1,2.90794,3.43667A3.39659,3.39659,0,0,1,66.24961,60.91061Zm6.14165-13.62555H55.60874V41.99788a8.39126,8.39126,0,0,1,16.78252,0Z"/><path class="cls-2" d="M119.39072,7.87294H8.60921a7.60818,7.60818,0,0,0-7.60814,7.60814V91.97452a7.61408,7.61408,0,0,0,7.60814,7.60021h37.9617L39.4802,117.6745a1.797,1.797,0,0,0,1.67319,2.45255h45.463a1.797,1.797,0,0,0,1.68037-2.434L81.42909,99.57473h37.9617a7.614,7.614,0,0,0,7.60814-7.60021V15.48116A7.60821,7.60821,0,0,0,119.39072,7.87294Zm-.562,78.41718H9.1713V18.60833a1.99867,1.99867,0,0,1,1.71808-2.193H117.10283a2.00413,2.00413,0,0,1,1.72586,2.193Z"/></svg>