<?xml version="1.0" standalone="no"?><!-- Generator: Gravit.io --><svg xmlns="http://www.w3.org/2000/svg" xmlns:xlink="http://www.w3.org/1999/xlink" style="isolation:isolate" viewBox="0 0 500 500" width="500" height="500"><defs><clipPath id="_clipPath_O0tgPeAIGOg3LsimQ2itKOxB92oIARaG"><rect width="500" height="500"/></clipPath></defs><g clip-path="url(#_clipPath_O0tgPeAIGOg3LsimQ2itKOxB92oIARaG)"><g id="Group"><g id="g20"><path d=" M 66.916 377.293 C 66.916 378.84 66.143 379.613 64.595 379.613 L 47.745 379.613 C 46.245 379.613 45.491 378.84 45.491 377.293 L 45.491 373.445 L 35.278 373.445 L 35.278 389.362 L 55.773 389.362 C 57.011 389.362 57.797 389.53 58.128 389.863 C 58.459 390.192 58.625 390.98 58.625 392.216 L 58.625 406.477 C 58.625 407.628 58.448 408.403 58.094 408.799 C 57.698 409.153 56.923 409.33 55.773 409.33 L 35.278 409.33 L 35.278 426.049 L 41.644 426.049 C 42.927 426.049 43.7 426.19 43.964 426.477 C 44.229 426.763 44.366 427.57 44.366 428.895 L 44.366 442.897 C 44.366 444.22 44.229 445.027 43.964 445.318 C 43.7 445.604 42.927 445.748 41.644 445.748 L 4.695 445.748 C 3.413 445.748 2.621 445.592 2.311 445.28 C 1.999 444.972 1.845 444.178 1.845 442.897 L 1.845 428.895 C 1.845 427.617 1.999 426.82 2.311 426.511 C 2.621 426.203 3.413 426.049 4.695 426.049 L 8.942 426.049 L 8.942 372.25 L 4.695 372.25 C 3.459 372.25 2.675 372.084 2.342 371.753 C 2.012 371.42 1.845 370.637 1.845 369.4 L 1.845 355.272 C 1.845 354.031 2.02 353.27 2.376 352.978 C 2.728 352.693 3.503 352.55 4.695 352.55 L 64.595 352.55 C 66.143 352.55 66.916 353.325 66.916 354.867 L 66.916 377.293 Z " fill="rgb(53,74,94)"/></g><g id="g24"><path d=" M 196.399 420.476 C 196.399 417.556 195.735 415.523 194.408 414.373 C 192.771 412.913 189.633 412.182 184.99 412.182 L 180.81 412.182 L 180.81 428.101 L 185.982 428.101 C 192.927 428.101 196.399 425.559 196.399 420.476 Z  M 193.812 388.701 C 193.812 386.095 193.279 384.277 192.219 383.264 C 191.027 382.067 188.794 381.471 185.518 381.471 L 180.81 381.471 L 180.81 396.596 L 185.982 396.596 C 191.202 396.596 193.812 393.965 193.812 388.701 Z  M 218.553 421.537 C 218.553 426.888 216.984 431.708 213.845 435.995 C 210.614 440.418 206.439 443.226 201.307 444.421 C 197.418 445.305 192.063 445.748 185.255 445.748 L 153.743 445.748 C 152.157 445.748 151.247 445.305 151.026 444.421 C 150.94 444.113 150.895 443.603 150.895 442.898 L 150.895 430.954 C 150.895 429.761 151.068 428.988 151.426 428.632 C 151.78 428.278 152.553 428.101 153.743 428.101 L 157.259 428.101 L 157.259 382.265 L 153.743 382.265 C 152.157 382.265 151.247 381.848 151.026 381.014 C 150.94 380.658 150.895 380.175 150.895 379.556 L 150.895 367.33 C 150.895 365.878 151.27 365.042 152.02 364.823 C 152.376 364.69 152.951 364.621 153.743 364.621 L 184.193 364.621 C 190.208 364.621 194.429 364.823 196.862 365.219 C 201.638 365.927 205.486 367.54 208.406 370.06 C 213.27 374.307 215.703 379.878 215.703 386.779 C 215.703 394.028 212.448 399.427 205.95 402.964 C 214.351 406.766 218.553 412.957 218.553 421.537 Z " fill="rgb(53,74,94)"/></g><g id="g28"><path d=" M 268.9 389.361 C 268.9 384.191 265.822 381.6 259.681 381.6 L 256.431 381.6 L 256.431 398.054 L 259.15 398.054 C 262.778 398.054 265.304 397.399 266.745 396.095 C 268.181 394.791 268.9 392.55 268.9 389.361 Z  M 296.36 442.896 C 296.36 444.131 296.268 444.885 296.095 445.15 C 295.83 445.546 295.056 445.749 293.774 445.749 L 275.466 445.749 C 273.743 445.749 272.594 445.15 272.017 443.956 L 257.754 414.637 L 256.431 414.637 L 256.431 442.896 C 256.431 444.044 256.252 444.818 255.9 445.216 C 255.502 445.572 254.725 445.749 253.579 445.749 L 228.703 445.749 C 227.508 445.749 226.758 445.572 226.449 445.216 C 226.141 444.864 225.983 444.087 225.983 442.896 L 225.983 430.952 C 225.983 429.762 226.158 428.989 226.514 428.633 C 226.87 428.279 227.641 428.102 228.833 428.102 L 232.349 428.102 L 232.349 382.266 L 228.833 382.266 C 227.247 382.266 226.337 381.849 226.116 381.013 C 226.025 380.657 225.983 380.176 225.983 379.557 L 225.983 367.331 C 225.983 365.879 226.402 365.041 227.247 364.824 C 227.599 364.689 228.174 364.622 228.97 364.622 L 259.281 364.622 C 270.734 364.622 278.691 366.477 283.159 370.193 C 288.337 374.484 290.923 380.477 290.923 388.171 C 290.923 398.122 286.852 405.682 278.716 410.856 L 289.462 428.102 L 293.508 428.102 C 295.101 428.102 296.009 428.526 296.226 429.362 C 296.318 429.718 296.36 430.249 296.36 430.952 L 296.36 442.896 Z " fill="rgb(53,74,94)"/></g><g id="g32"><path d=" M 340.8 442.897 C 340.8 444.087 340.627 444.864 340.269 445.216 C 339.917 445.572 339.146 445.749 337.952 445.749 L 305.45 445.749 C 303.855 445.749 302.947 445.306 302.73 444.422 C 302.638 444.112 302.593 443.602 302.593 442.897 L 302.593 430.953 C 302.593 429.762 302.774 428.987 303.126 428.633 C 303.478 428.279 304.255 428.102 305.45 428.102 L 309.298 428.102 L 309.298 382.466 L 305.45 382.466 C 303.855 382.466 302.947 382.066 302.73 381.272 C 302.638 380.916 302.593 380.41 302.593 379.745 L 302.593 367.343 C 302.593 365.884 302.972 365.045 303.724 364.822 C 304.076 364.689 304.651 364.622 305.45 364.622 L 337.952 364.622 C 339.546 364.622 340.448 365.02 340.669 365.816 C 340.755 366.168 340.8 366.678 340.8 367.343 L 340.8 379.745 C 340.8 381.207 340.429 382.047 339.683 382.266 C 339.293 382.399 338.725 382.466 337.977 382.466 L 333.642 382.466 L 333.642 428.102 L 337.977 428.102 C 339.862 428.102 340.8 429.055 340.8 430.953 L 340.8 442.897 Z " fill="rgb(53,74,94)"/></g><g id="g36"><path d=" M 410.058 437.324 C 410.058 438.206 409.526 439.116 408.464 440.041 C 402.496 445.215 394.198 447.806 383.586 447.806 C 371.915 447.806 363.043 443.913 356.988 436.131 C 351.149 428.655 348.231 418.083 348.231 404.422 C 348.231 390.184 351.724 379.506 358.712 372.385 C 365.124 365.885 373.198 362.632 382.924 362.632 C 393.229 362.632 401.409 365.354 407.463 370.791 C 408.569 371.72 409.125 372.805 409.125 374.039 L 409.125 388.833 C 409.125 390.295 408.31 391.024 406.673 391.024 L 391.875 391.024 C 390.331 391.024 389.553 390.295 389.553 388.833 L 389.553 382.333 C 385.222 381.936 383.19 381.736 383.455 381.736 C 376.202 381.736 372.575 388.503 372.575 402.033 C 372.575 412.205 373.681 419.325 375.892 423.391 C 377.839 426.888 381.003 428.632 385.376 428.632 C 386.086 428.632 387.792 428.415 390.485 427.971 L 390.485 421.4 C 390.485 419.901 391.258 419.146 392.804 419.146 L 407.735 419.146 C 409.279 419.146 410.058 419.901 410.058 421.4 L 410.058 437.324 Z " fill="rgb(53,74,94)"/></g><g id="g40"><path d=" M 462.257 405.682 L 459.54 389.763 C 458.383 383.041 457.574 377.889 457.086 374.306 C 456.548 380.187 455.777 385.34 454.762 389.763 L 451.242 405.682 L 462.257 405.682 Z  M 500 443.427 C 500 444.972 499.183 445.749 497.548 445.749 L 474.199 445.749 C 473.095 445.749 472.394 445.627 472.105 445.382 C 471.814 445.138 471.524 444.487 471.21 443.427 L 466.038 423.99 L 448.263 423.99 L 442.692 443.427 C 442.382 444.531 442.093 445.195 441.826 445.416 C 441.56 445.635 440.893 445.749 439.835 445.749 L 417.948 445.749 C 416.884 445.749 416.242 445.572 416.021 445.216 C 415.804 444.864 415.694 444.266 415.694 443.427 L 415.694 428.235 C 415.694 426.777 416.44 426.048 417.948 426.048 L 421.525 426.048 L 444.743 354.868 C 445.23 353.326 446.226 352.549 447.73 352.549 L 467.96 352.549 C 469.065 352.549 469.775 352.673 470.079 352.916 C 470.393 353.158 470.723 353.809 471.079 354.868 L 494.298 426.048 L 497.548 426.048 C 499.183 426.048 500 426.777 500 428.235 L 500 443.427 Z " fill="rgb(53,74,94)"/></g><g id="g44"><path d=" M 22.854 481.006 C 22.854 477.298 22.489 474.749 21.758 473.357 C 20.88 471.705 19.178 470.882 16.65 470.882 L 14.881 470.882 L 14.881 492.061 L 16.711 492.061 C 19.391 492.061 21.127 491.161 21.921 489.362 C 22.538 487.989 22.854 485.204 22.854 481.006 Z  M 34.549 481.069 C 34.549 487.542 33.307 492.381 30.823 495.596 C 27.994 499.263 23.431 501.094 17.132 501.094 L 1.378 501.094 C 0.609 501.094 0.171 500.881 0.065 500.451 C 0.019 500.304 0 500.055 0 499.71 L 0 493.927 C 0 493.346 0.084 492.977 0.257 492.804 C 0.428 492.632 0.803 492.545 1.378 492.545 L 3.086 492.545 L 3.086 470.365 L 1.378 470.365 C 0.609 470.365 0.171 470.163 0.065 469.759 C 0.019 469.586 0 469.35 0 469.047 L 0 463.104 C 0 462.247 0.457 461.807 1.376 461.786 L 14.881 461.72 C 21.868 461.699 26.894 463.178 29.959 466.157 C 33.02 469.133 34.549 474.109 34.549 481.069 Z " fill="rgb(53,74,94)"/></g><g id="g48"><path d=" M 67.012 499.969 C 67.012 500.719 66.614 501.094 65.824 501.094 L 39.562 501.094 C 38.793 501.094 38.355 500.881 38.249 500.451 C 38.203 500.304 38.182 500.055 38.182 499.71 L 38.182 493.927 C 38.182 493.346 38.268 492.977 38.441 492.804 C 38.612 492.632 38.984 492.545 39.562 492.545 L 41.27 492.545 L 41.27 470.334 L 39.562 470.334 C 38.793 470.334 38.355 470.132 38.249 469.729 C 38.203 469.554 38.182 469.319 38.182 469.024 L 38.182 463.098 C 38.182 462.394 38.367 461.99 38.727 461.88 C 38.9 461.817 39.176 461.786 39.562 461.786 L 65.695 461.786 C 66.485 461.786 66.881 462.161 66.881 462.908 L 66.881 472.329 C 66.881 473.079 66.485 473.454 65.695 473.454 L 58.655 473.454 C 57.865 473.454 57.467 473.079 57.467 472.329 L 57.467 470.882 L 53.065 470.882 L 53.065 476.603 L 61.868 476.603 C 62.449 476.603 62.822 476.689 62.997 476.86 C 63.165 477.028 63.252 477.408 63.252 477.983 L 63.252 483.997 C 63.252 484.808 62.793 485.217 61.868 485.217 L 53.065 485.217 L 53.065 491.932 L 57.594 491.932 L 57.594 490.165 C 57.594 489.375 57.971 488.979 58.721 488.979 L 65.824 488.979 C 66.614 488.979 67.012 489.375 67.012 490.165 L 67.012 499.969 Z " fill="rgb(53,74,94)"/></g><g id="g52"><path d=" M 105.23 473.775 C 105.23 471.266 103.72 470.015 100.699 470.015 L 99.189 470.015 L 99.189 478.049 L 100.442 478.049 C 102.201 478.049 103.437 477.722 104.156 477.065 C 104.876 476.416 105.23 475.317 105.23 473.775 Z  M 115.712 473.198 C 115.712 477.177 114.358 480.402 111.659 482.856 C 108.961 485.31 105.369 486.532 100.889 486.532 L 99.189 486.532 L 99.189 492.544 L 101.822 492.544 C 102.595 492.544 103.035 492.748 103.143 493.155 C 103.183 493.328 103.208 493.585 103.208 493.926 L 103.208 499.71 C 103.208 500.292 103.143 500.665 103.016 500.837 C 102.886 501.008 102.53 501.094 101.952 501.094 L 85.622 501.094 C 85.049 501.094 84.681 501.008 84.533 500.837 C 84.382 500.665 84.308 500.292 84.308 499.71 L 84.308 493.926 C 84.308 493.347 84.394 492.976 84.563 492.803 C 84.734 492.63 85.111 492.544 85.692 492.544 L 87.39 492.544 L 87.39 470.333 L 85.692 470.333 C 84.919 470.333 84.477 470.133 84.369 469.728 C 84.329 469.553 84.308 469.319 84.308 469.022 L 84.308 463.099 C 84.308 462.395 84.512 461.989 84.919 461.881 C 85.09 461.816 85.37 461.786 85.753 461.786 L 100.442 461.786 C 105.993 461.786 109.848 462.684 112.013 464.485 C 114.476 466.522 115.712 469.425 115.712 473.198 Z " fill="rgb(53,74,94)"/></g><g id="g56"><path d=" M 139.46 473.775 C 139.46 471.266 137.971 470.015 134.992 470.015 L 133.419 470.015 L 133.419 477.984 L 134.733 477.984 C 136.492 477.984 137.718 477.67 138.416 477.036 C 139.115 476.406 139.46 475.317 139.46 473.775 Z  M 152.767 499.71 C 152.767 500.313 152.725 500.677 152.639 500.804 C 152.508 500.998 152.131 501.094 151.514 501.094 L 142.641 501.094 C 141.807 501.094 141.249 500.804 140.967 500.227 L 134.061 486.018 L 133.419 486.018 L 133.419 499.71 C 133.419 500.269 133.33 500.644 133.158 500.837 C 132.966 501.008 132.593 501.094 132.035 501.094 L 119.979 501.094 C 119.406 501.094 119.037 501.008 118.89 500.837 C 118.738 500.665 118.665 500.292 118.665 499.71 L 118.665 493.926 C 118.665 493.347 118.751 492.976 118.922 492.803 C 119.09 492.63 119.467 492.544 120.049 492.544 L 121.751 492.544 L 121.751 470.333 L 120.049 470.333 C 119.276 470.333 118.833 470.133 118.73 469.728 C 118.686 469.553 118.665 469.319 118.665 469.022 L 118.665 463.099 C 118.665 462.395 118.869 461.989 119.276 461.881 C 119.446 461.816 119.726 461.786 120.11 461.786 L 134.799 461.786 C 140.349 461.786 144.204 462.684 146.37 464.485 C 148.877 466.564 150.13 469.467 150.13 473.198 C 150.13 478.019 148.158 481.683 144.217 484.187 L 149.424 492.544 L 151.383 492.544 C 152.157 492.544 152.595 492.748 152.704 493.155 C 152.744 493.328 152.767 493.585 152.767 493.926 L 152.767 499.71 Z " fill="rgb(53,74,94)"/></g><g id="g60"><path d=" M 176.36 481.423 C 176.36 473.345 174.818 469.307 171.736 469.307 C 168.669 469.307 167.14 473.408 167.14 481.615 C 167.14 489.609 168.669 493.605 171.736 493.605 C 174.818 493.605 176.36 489.546 176.36 481.423 Z  M 188.348 480.941 C 188.348 495.04 182.766 502.093 171.603 502.093 C 160.677 502.093 155.21 495.04 155.21 480.941 C 155.21 475.456 156.259 471.019 158.359 467.632 C 161.146 463.092 165.633 460.821 171.829 460.821 C 182.844 460.821 188.348 467.527 188.348 480.941 Z " fill="rgb(53,74,94)"/></g><g id="g64"><path d=" M 225.729 485.957 C 225.729 486.661 225.352 487.017 224.602 487.017 L 223.477 487.017 L 223.477 497.01 C 223.477 497.484 223.06 498.028 222.223 498.649 C 220.833 499.702 218.872 500.551 216.344 501.19 C 213.985 501.792 211.672 502.091 209.397 502.091 C 197.979 502.091 192.268 495.083 192.268 481.07 C 192.268 474.169 193.96 468.995 197.347 465.545 C 200.45 462.396 204.364 460.82 209.077 460.82 C 214.735 460.82 218.988 462.107 221.84 464.675 C 222.457 465.258 222.773 465.77 222.773 466.221 L 222.773 473.518 C 222.773 474.226 222.352 474.578 221.518 474.578 L 214.351 474.578 C 213.555 474.578 213.159 474.226 213.159 473.518 L 213.159 470.141 C 212.369 469.884 211.219 469.76 209.719 469.76 C 208.156 469.76 206.884 470.493 205.896 471.972 C 204.674 473.752 204.063 476.4 204.063 479.911 C 204.063 485.121 204.569 488.666 205.573 490.552 C 206.454 492.178 208.017 492.995 210.269 492.995 C 210.867 492.995 211.672 492.89 212.679 492.673 L 212.679 487.017 L 209.786 487.017 C 209.184 487.017 208.792 486.941 208.613 486.791 C 208.43 486.64 208.337 486.275 208.337 485.698 L 208.337 480.234 C 208.337 479.699 208.436 479.334 208.628 479.145 C 208.824 478.951 209.205 478.852 209.786 478.852 L 224.602 478.852 C 225.352 478.852 225.729 479.248 225.729 480.04 L 225.729 485.957 Z " fill="rgb(53,74,94)"/></g><g id="g68"><path d=" M 250.537 473.775 C 250.537 471.266 249.048 470.015 246.071 470.015 L 244.496 470.015 L 244.496 477.984 L 245.814 477.984 C 247.571 477.984 248.801 477.67 249.492 477.036 C 250.192 476.406 250.537 475.317 250.537 473.775 Z  M 263.844 499.71 C 263.844 500.313 263.802 500.677 263.716 500.804 C 263.592 500.998 263.217 501.094 262.591 501.094 L 253.722 501.094 C 252.884 501.094 252.33 500.804 252.052 500.227 L 245.14 486.018 L 244.496 486.018 L 244.496 499.71 C 244.496 500.269 244.411 500.644 244.239 500.837 C 244.047 501.008 243.674 501.094 243.116 501.094 L 231.064 501.094 C 230.483 501.094 230.119 501.008 229.971 500.837 C 229.819 500.665 229.746 500.292 229.746 499.71 L 229.746 493.926 C 229.746 493.347 229.832 492.976 230.001 492.803 C 230.171 492.63 230.548 492.544 231.125 492.544 L 232.832 492.544 L 232.832 470.333 L 231.125 470.333 C 230.357 470.333 229.914 470.133 229.811 469.728 C 229.767 469.553 229.746 469.319 229.746 469.022 L 229.746 463.099 C 229.746 462.395 229.95 461.989 230.357 461.881 C 230.525 461.816 230.805 461.786 231.191 461.786 L 245.88 461.786 C 251.43 461.786 255.285 462.684 257.451 464.485 C 259.96 466.564 261.213 469.467 261.213 473.198 C 261.213 478.019 259.237 481.683 255.298 484.187 L 260.501 492.544 L 262.46 492.544 C 263.233 492.544 263.672 492.748 263.783 493.155 C 263.827 493.328 263.844 493.585 263.844 493.926 L 263.844 499.71 Z " fill="rgb(53,74,94)"/></g><g id="g72"><path d=" M 284.832 484.061 L 283.649 477.537 C 283.282 475.476 282.96 473.528 282.682 471.687 C 282.467 473.484 282.115 475.455 281.62 477.6 L 280.107 484.061 L 284.832 484.061 Z  M 301.421 499.969 C 301.421 500.719 301.038 501.094 300.259 501.094 L 290.109 501.094 C 289.336 501.094 288.854 500.742 288.656 500.03 L 286.568 492 L 278.791 492 L 276.48 500.03 C 276.351 500.525 276.221 500.824 276.099 500.934 C 275.96 501.041 275.633 501.094 275.096 501.094 L 265.612 501.094 C 265.1 501.094 264.784 501.008 264.669 500.837 C 264.549 500.664 264.487 500.378 264.487 499.969 L 264.487 493.605 C 264.487 492.897 264.864 492.544 265.612 492.544 L 267.057 492.544 L 277.215 462.909 C 277.474 462.161 277.957 461.786 278.66 461.786 L 287.211 461.786 C 288.009 461.786 288.534 462.161 288.786 462.909 L 298.944 492.544 L 300.259 492.544 C 301.038 492.544 301.421 492.897 301.421 493.605 L 301.421 499.969 Z " fill="rgb(53,74,94)"/></g><g id="g76"><path d=" M 346.385 499.709 C 346.385 500.249 346.292 500.613 346.113 500.805 C 345.928 500.996 345.54 501.093 344.94 501.093 L 334.491 501.093 C 333.356 501.093 332.781 500.632 332.756 499.709 L 332.564 486.887 C 332.541 485.237 332.682 482.25 332.985 477.919 L 328.968 492.061 C 328.814 492.556 328.673 492.846 328.53 492.933 C 328.389 493.015 328.056 493.059 327.519 493.059 L 322.187 493.059 C 321.623 493.059 321.264 493.008 321.104 492.914 C 320.944 492.819 320.801 492.511 320.672 491.999 L 318.937 485.442 C 318.598 483.835 318.01 481.288 317.169 477.791 C 317.281 482.484 317.317 485.52 317.298 486.887 L 317.169 499.709 C 317.169 500.396 316.99 500.815 316.626 500.965 C 316.434 501.051 316.133 501.093 315.722 501.093 L 305.055 501.093 C 304.473 501.093 304.109 501.007 303.959 500.836 C 303.812 500.664 303.738 500.291 303.738 499.709 L 303.738 493.927 C 303.738 493.346 303.812 492.977 303.959 492.804 C 304.109 492.631 304.473 492.545 305.055 492.545 L 306.238 492.545 L 307.686 470.334 L 306.308 470.334 C 305.535 470.334 305.097 470.131 304.987 469.729 C 304.943 469.554 304.924 469.318 304.924 469.023 L 304.924 463.098 C 304.924 462.394 305.103 461.99 305.474 461.88 C 305.64 461.817 305.918 461.785 306.308 461.785 L 318.678 461.785 C 319.474 461.785 319.982 462.141 320.19 462.845 L 323.693 473.965 C 323.849 474.481 324.323 476.283 325.138 479.367 C 325.72 477.115 326.221 475.339 326.653 474.031 L 330.285 462.845 C 330.495 462.141 331.02 461.785 331.86 461.785 L 343.754 461.785 C 344.413 461.785 344.824 461.88 344.971 462.074 C 345.125 462.268 345.201 462.607 345.201 463.098 L 345.201 469.023 C 345.201 469.491 345.132 469.811 345.009 469.984 C 344.811 470.216 344.396 470.334 343.754 470.334 L 342.37 470.334 L 343.623 492.545 L 344.94 492.545 C 345.563 492.545 345.959 492.644 346.126 492.848 C 346.299 493.053 346.385 493.415 346.385 493.927 L 346.385 499.709 Z " fill="rgb(53,74,94)"/></g><g id="g80"><path d=" M 369.047 484.061 L 367.856 477.537 C 367.49 475.476 367.168 473.528 366.892 471.687 C 366.675 473.484 366.323 475.455 365.83 477.6 L 364.322 484.061 L 369.047 484.061 Z  M 385.629 499.969 C 385.629 500.719 385.246 501.094 384.473 501.094 L 374.317 501.094 C 373.546 501.094 373.062 500.742 372.87 500.03 L 370.782 492 L 363.005 492 L 360.688 500.03 C 360.566 500.525 360.435 500.824 360.307 500.934 C 360.176 501.041 359.841 501.094 359.31 501.094 L 349.827 501.094 C 349.315 501.094 348.999 501.008 348.883 500.837 C 348.759 500.664 348.704 500.378 348.704 499.969 L 348.704 493.605 C 348.704 492.897 349.075 492.544 349.827 492.544 L 351.272 492.544 L 361.429 462.909 C 361.682 462.161 362.165 461.786 362.874 461.786 L 371.427 461.786 C 372.217 461.786 372.742 462.161 373.001 462.909 L 383.152 492.544 L 384.473 492.544 C 385.246 492.544 385.629 492.897 385.629 493.605 L 385.629 499.969 Z " fill="rgb(53,74,94)"/></g><g id="g84"><path d=" M 410.83 481.006 C 410.83 477.298 410.465 474.749 409.737 473.357 C 408.854 471.705 407.154 470.882 404.628 470.882 L 402.861 470.882 L 402.861 492.061 L 404.689 492.061 C 407.369 492.061 409.107 491.161 409.899 489.362 C 410.516 487.989 410.83 485.204 410.83 481.006 Z  M 422.525 481.069 C 422.525 487.542 421.285 492.381 418.799 495.596 C 415.97 499.263 411.409 501.094 405.109 501.094 L 389.356 501.094 C 388.587 501.094 388.149 500.881 388.039 500.451 C 387.995 500.304 387.976 500.055 387.976 499.71 L 387.976 493.927 C 387.976 493.346 388.062 492.977 388.235 492.804 C 388.404 492.632 388.781 492.545 389.356 492.545 L 391.06 492.545 L 391.06 470.365 L 389.356 470.365 C 388.587 470.365 388.149 470.163 388.039 469.759 C 387.995 469.586 387.976 469.35 387.976 469.047 L 387.976 463.104 C 387.976 462.247 388.433 461.807 389.349 461.786 L 402.861 461.72 C 409.842 461.699 414.87 463.178 417.935 466.157 C 421 469.133 422.525 474.109 422.525 481.069 Z " fill="rgb(53,74,94)"/></g><g id="g88"><path d=" M 447.602 481.423 C 447.602 473.345 446.06 469.307 442.976 469.307 C 439.904 469.307 438.379 473.408 438.379 481.615 C 438.379 489.609 439.904 493.605 442.976 493.605 C 446.06 493.605 447.602 489.546 447.602 481.423 Z  M 459.588 480.941 C 459.588 495.04 454.003 502.093 442.839 502.093 C 431.916 502.093 426.448 495.04 426.448 480.941 C 426.448 475.456 427.499 471.019 429.599 467.632 C 432.384 463.092 436.871 460.821 443.068 460.821 C 454.084 460.821 459.588 467.527 459.588 480.941 Z " fill="rgb(53,74,94)"/></g><g id="g92"><path d=" M 483.979 473.775 C 483.979 471.266 482.491 470.015 479.513 470.015 L 477.937 470.015 L 477.937 477.984 L 479.26 477.984 C 481.015 477.984 482.245 477.67 482.936 477.036 C 483.633 476.406 483.979 475.317 483.979 473.775 Z  M 497.286 499.71 C 497.286 500.313 497.244 500.677 497.164 500.804 C 497.033 500.998 496.658 501.094 496.034 501.094 L 487.168 501.094 C 486.327 501.094 485.771 500.804 485.493 500.227 L 478.586 486.018 L 477.937 486.018 L 477.937 499.71 C 477.937 500.269 477.857 500.644 477.684 500.837 C 477.486 501.008 477.116 501.094 476.555 501.094 L 464.506 501.094 C 463.924 501.094 463.562 501.008 463.413 500.837 C 463.265 500.665 463.185 500.292 463.185 499.71 L 463.185 493.926 C 463.185 493.347 463.271 492.976 463.444 492.803 C 463.617 492.63 463.994 492.544 464.567 492.544 L 466.273 492.544 L 466.273 470.333 L 464.567 470.333 C 463.796 470.333 463.358 470.133 463.252 469.728 C 463.21 469.553 463.185 469.319 463.185 469.022 L 463.185 463.099 C 463.185 462.395 463.389 461.989 463.796 461.881 C 463.969 461.816 464.247 461.786 464.634 461.786 L 479.321 461.786 C 484.87 461.786 488.731 462.684 490.892 464.485 C 493.401 466.564 494.655 469.467 494.655 473.198 C 494.655 478.019 492.685 481.683 488.737 484.187 L 493.945 492.544 L 495.91 492.544 C 496.675 492.544 497.113 492.748 497.225 493.155 C 497.269 493.328 497.286 493.585 497.286 493.926 L 497.286 499.71 Z " fill="rgb(53,74,94)"/></g><g id="g96"><path d=" M 102.074 410.591 L 105.189 397.259 C 106.209 392.833 106.94 388.769 107.38 385.053 C 107.955 388.856 108.619 392.877 109.368 397.124 L 111.825 410.591 L 102.074 410.591 Z  M 143.665 428.103 L 140.943 428.103 L 119.983 366.943 C 119.781 366.351 119.471 365.907 119.103 365.538 L 105.248 370.803 C 104.127 371.228 103.293 370.895 102.743 369.802 L 100.095 364.622 L 99.089 364.622 C 97.629 364.622 96.632 365.397 96.101 366.943 L 75.141 428.103 L 72.159 428.103 C 70.61 428.103 69.835 428.834 69.835 430.293 L 69.835 443.428 C 69.835 444.266 69.955 444.864 70.204 445.216 C 70.444 445.57 71.099 445.747 72.159 445.747 L 91.728 445.747 C 92.83 445.747 93.517 445.635 93.782 445.416 C 94.048 445.195 94.311 444.576 94.576 443.556 L 99.354 426.973 L 115.41 426.973 L 119.718 443.556 C 120.116 445.016 121.112 445.747 122.705 445.747 L 143.665 445.747 C 145.256 445.747 146.052 444.972 146.052 443.428 L 146.052 430.293 C 146.052 428.834 145.256 428.103 143.665 428.103 Z " fill="rgb(53,74,94)"/></g><g id="g100"><path d=" M 128.315 358.094 C 128.586 358.637 128.723 359.065 128.723 359.366 C 128.723 359.887 128.237 360.325 127.264 360.687 L 105.452 368.974 C 104.332 369.4 103.498 369.067 102.948 367.972 L 99.851 361.917 C 99.55 361.309 99.394 360.885 99.394 360.643 C 99.394 360.249 99.822 359.794 100.673 359.276 L 120.573 347.165 C 121.241 346.738 121.694 346.527 121.94 346.527 C 122.303 346.527 122.711 346.98 123.168 347.89 L 128.315 358.094 Z " fill="rgb(53,74,94)"/></g><g id="g104"><path d=" M 249.394 30.423 L 253.426 30.423 L 243.92 39.932 L 253.629 49.643 C 257.302 53.317 263.264 53.317 266.938 49.643 L 269.788 46.787 L 269.788 60.226 L 283.516 60.226 C 288.711 60.226 292.926 56.013 292.926 50.816 L 292.926 46.789 L 302.433 56.291 L 312.14 46.589 C 315.814 42.908 315.814 36.949 312.134 33.271 L 310.653 31.786 C 306.096 29.728 301.422 27.897 296.632 26.307 C 293.859 31.976 288.096 35.911 281.359 35.911 C 272.183 35.911 264.755 28.651 264.374 19.566 C 259.94 19.157 255.457 18.923 250.922 18.923 C 247.237 18.923 243.599 19.105 239.985 19.374 L 239.985 21.019 C 239.978 26.214 244.202 30.429 249.394 30.423 Z " fill="rgb(53,74,94)"/></g><g id="g108"><path d=" M 267.855 160.31 L 278.596 155.703 L 278.596 155.648 L 267.855 151.039 L 267.855 147.976 L 281.753 154.344 L 281.753 157.007 L 267.855 163.377 L 267.855 160.31 Z  M 258.31 160.272 L 263.245 143.546 L 266.173 143.546 L 260.111 164.074 C 260.694 165.043 261.339 165.831 262.106 166.343 C 264.387 167.862 267.743 168.186 272.714 168.104 C 276.864 168.03 281.372 168.178 283.249 166.379 C 284.827 164.866 286.367 160.19 287.709 155.964 C 289.537 150.205 290.418 146.72 288.513 144.972 C 286.224 142.872 280.182 142.526 273.041 142.433 C 265.908 142.334 256.504 144.441 255.264 147.249 C 254.318 149.364 255.807 153.979 257.21 157.495 C 257.594 158.454 257.952 159.387 258.31 160.272 Z " fill="rgb(53,74,94)"/></g><g id="g112"><path d=" M 197.776 146.801 C 197.578 145.645 197.397 144.482 197.233 143.321 C 197.397 144.482 197.578 145.645 197.776 146.801 Z  M 197.848 147.204 C 197.846 147.195 197.843 147.185 197.843 147.176 C 197.843 147.185 197.846 147.195 197.848 147.204 Z  M 201.842 141.147 C 205.261 140.22 215.677 137.063 231.725 139.418 C 245.091 141.373 241.721 145.813 247.214 146.015 L 248.049 146.015 C 253.547 145.813 250.174 141.373 263.538 139.418 C 279.59 137.063 290.007 140.22 293.428 141.147 C 296.849 142.072 297.135 141.324 297.129 143.239 C 297.118 145.152 297.295 146.7 295.64 146.7 C 293.984 146.7 293.984 146.7 291.395 154.808 C 288.292 164.488 287.466 167.214 284.452 169.474 C 280.826 172.2 265.52 172.193 260.568 169.215 C 254.368 165.484 255.196 151.518 247.752 151.299 L 247.52 151.299 C 240.071 151.518 240.886 165.484 234.697 169.215 C 229.745 172.193 214.445 172.2 210.815 169.474 C 207.803 167.214 206.975 164.488 203.879 154.808 C 201.285 146.7 201.285 146.7 199.63 146.7 C 197.974 146.7 198.149 145.152 198.14 143.239 C 198.128 141.324 198.418 142.072 201.842 141.147 Z  M 298.789 144.81 C 298.757 145.059 298.719 145.306 298.69 145.554 C 298.719 145.306 298.757 145.059 298.789 144.81 Z  M 299.012 142.87 C 298.964 143.285 298.919 143.7 298.869 144.115 C 298.919 143.7 298.964 143.285 299.012 142.87 Z  M 299.086 142.127 C 299.086 142.112 299.086 142.097 299.092 142.083 C 299.086 142.097 299.086 142.112 299.086 142.127 C 299.086 142.146 299.086 142.171 299.08 142.184 C 299.08 142.194 299.073 142.205 299.073 142.217 C 299.075 142.188 299.082 142.156 299.086 142.127 Z  M 182.303 125.86 C 182.297 134.061 188.813 140.696 196.931 140.991 C 196.946 141.114 196.957 141.236 196.971 141.36 L 195.619 141.297 C 193.15 141.91 192.013 146.46 192.347 152.706 L 188.659 156.399 L 193.571 161.311 C 193.694 161.852 193.814 162.394 193.951 162.941 C 196.554 173.358 201.328 181.129 204.926 181.222 C 207.146 193.48 210.792 204.805 217.045 211.049 C 232.49 226.494 201.595 241.941 201.595 241.941 C 201.595 241.941 200.919 242.213 199.838 242.655 C 213.548 253.571 230.099 259.973 247.935 259.973 C 265.773 259.973 282.324 253.571 296.04 242.655 C 294.957 242.213 294.279 241.941 294.279 241.941 C 294.279 241.941 263.388 226.494 278.834 211.049 C 285.079 204.805 288.724 193.48 290.942 181.222 C 294.551 181.129 299.322 173.358 301.921 162.941 C 301.989 162.676 302.039 162.415 302.107 162.152 C 302.892 160.224 303.244 158.172 303.206 156.125 C 304.226 148.168 303.164 142.017 300.266 141.297 L 299.166 141.343 C 299.172 141.242 299.179 141.145 299.191 141.046 L 315.883 141.046 L 315.871 118.89 C 315.871 110.508 309.071 103.699 300.678 103.693 L 294.18 103.693 L 309.52 88.351 L 293.847 72.678 C 287.921 66.753 278.296 66.753 272.36 72.678 L 269.51 75.526 C 268.95 75.577 268.366 75.632 267.768 75.691 L 267.768 55.577 L 245.611 55.577 C 237.225 55.577 230.415 62.386 230.415 70.776 L 230.415 77.294 L 215.066 61.935 L 199.4 77.608 C 193.468 83.54 193.468 93.156 199.4 99.096 L 204.007 103.699 L 182.297 103.699 L 182.303 125.86 Z " fill="rgb(53,74,94)"/></g><g id="g116"><path d=" M 299.087 142.127 C 299.082 142.157 299.076 142.186 299.074 142.216 C 299.074 142.205 299.08 142.195 299.08 142.182 C 299.087 142.171 299.087 142.146 299.087 142.127 Z " fill="rgb(53,74,94)"/></g><g id="g120"><path d=" M 219.601 154.319 L 231.951 148.579 L 231.951 151.311 L 222.613 155.402 L 222.613 155.45 L 231.951 159.541 L 231.951 162.271 L 219.601 156.529 L 219.601 154.319 Z  M 212.017 166.379 C 213.896 168.178 218.4 168.028 222.554 168.102 C 227.53 168.186 230.879 167.862 233.158 166.343 C 235.309 164.909 236.508 161.397 238.058 157.496 C 239.461 153.98 240.946 149.364 240.005 147.249 C 238.762 144.441 229.358 142.335 222.227 142.432 C 215.086 142.524 209.051 142.87 206.759 144.972 C 204.846 146.721 205.731 150.205 207.56 155.962 C 208.904 160.19 210.441 164.866 212.017 166.379 Z " fill="rgb(53,74,94)"/></g><g id="g124"><path d=" M 300.841 249.012 C 285.103 261.553 266.627 268.186 247.43 268.186 C 228.241 268.186 209.763 261.553 194.023 249.012 L 190.366 246.097 C 178.765 251.035 160.268 259.28 148.073 266.53 C 174.36 292.921 210.732 309.26 250.92 309.26 C 289.744 309.26 324.976 293.989 351.021 269.168 C 339.309 261.367 317.534 251.644 304.496 246.097 L 300.841 249.012 Z " fill="rgb(0,159,227)"/></g><g id="g128"><path d=" M 206.759 144.972 C 209.051 142.87 215.088 142.524 222.227 142.432 C 229.36 142.335 238.761 144.441 240.004 147.249 C 240.946 149.364 239.461 153.98 238.058 157.496 C 236.507 161.397 235.309 164.909 233.158 166.343 C 230.879 167.862 227.529 168.186 222.554 168.102 C 218.399 168.028 213.896 168.178 212.017 166.379 C 210.441 164.866 208.903 160.19 207.559 155.962 C 205.731 150.205 204.846 146.721 206.759 144.972 Z  M 255.264 147.249 C 256.505 144.441 265.908 142.335 273.041 142.432 C 280.18 142.524 286.224 142.87 288.514 144.972 C 290.418 146.721 289.537 150.205 287.709 155.962 C 286.367 160.19 284.827 164.866 283.249 166.379 C 281.372 168.178 276.864 168.028 272.715 168.102 C 267.743 168.186 264.387 167.862 262.106 166.343 C 261.339 165.829 260.695 165.041 260.111 164.072 L 259.976 164.532 L 257.052 164.532 L 258.31 160.272 C 257.952 159.385 257.594 158.452 257.21 157.496 C 255.807 153.98 254.318 149.364 255.264 147.249 M 199.63 146.7 C 201.286 146.7 201.286 146.7 203.879 154.808 C 206.976 164.489 207.804 167.213 210.816 169.473 C 214.443 172.199 229.745 172.193 234.698 169.214 C 240.887 165.484 240.072 151.517 247.52 151.298 L 247.75 151.298 C 255.197 151.517 254.369 165.484 260.568 169.214 C 265.521 172.193 280.827 172.199 284.452 169.473 C 287.467 167.213 288.292 164.489 291.395 154.808 C 293.984 146.7 293.984 146.7 295.638 146.7 C 297.296 146.7 297.119 145.151 297.127 143.239 C 297.134 141.324 296.849 142.072 293.428 141.149 C 290.007 140.222 279.59 137.064 263.538 139.417 C 250.172 141.374 253.547 145.813 248.049 146.017 L 247.215 146.017 C 241.721 145.813 245.091 141.374 231.725 139.417 C 215.678 137.064 205.261 140.222 201.842 141.149 C 198.419 142.072 198.128 141.324 198.141 143.239 C 198.149 145.151 197.974 146.7 199.63 146.7" fill="rgb(255,255,255)"/></g><g id="g132"><path d=" M 231.951 159.54 L 222.613 155.451 L 222.613 155.401 L 231.951 151.31 L 231.951 148.58 L 219.6 154.318 L 219.6 156.528 L 231.951 162.27 L 231.951 159.54 Z " fill="rgb(255,255,255)"/></g><g id="g136"><path d=" M 263.246 143.545 L 258.309 160.273 C 258.888 161.703 259.461 163.001 260.112 164.073 L 266.175 143.545 L 263.246 143.545 Z " fill="rgb(255,255,255)"/></g><g id="g140"><path d=" M 281.753 154.344 L 267.854 147.976 L 267.854 151.038 L 278.595 155.648 L 278.595 155.704 L 267.854 160.309 L 267.854 163.376 L 281.753 157.006 L 281.753 154.344 Z " fill="rgb(255,255,255)"/></g><g id="g144"><path d=" M 388.985 91.753 L 401.283 79.459 L 362.272 40.467 C 353.515 31.698 341.506 28.186 330.101 29.838 C 355.03 44.571 375.486 66.043 388.985 91.753 Z " fill="rgb(53,74,94)"/></g><g id="g148"><path d=" M 250.921 8.221 C 267.103 8.221 282.713 10.69 297.387 15.267 L 297.387 -2.093 L 242.265 -2.093 C 229.872 -2.093 218.906 3.9 212.011 13.116 C 224.45 9.923 237.49 8.221 250.921 8.221 Z " fill="rgb(53,74,94)"/></g><g id="g152"><path d=" M 406.794 164.091 C 406.794 180.275 404.325 195.883 399.745 210.561 L 417.112 210.561 L 417.08 155.433 C 417.08 143.072 411.102 132.115 401.902 125.214 C 405.096 137.641 406.794 150.668 406.794 164.091 Z " fill="rgb(53,74,94)"/></g><g id="g156"><path d=" M 178.565 26.042 L 166.255 13.732 L 127.284 52.726 C 118.497 61.504 114.981 73.528 116.656 84.945 C 131.385 60.01 152.855 39.547 178.565 26.042 Z " fill="rgb(53,74,94)"/></g><g id="g160"><path d=" M 250.921 319.96 C 234.741 319.96 219.133 317.491 204.461 312.912 L 204.461 330.274 L 259.608 330.274 C 271.986 330.274 282.957 324.281 289.852 315.056 C 277.411 318.256 264.363 319.96 250.921 319.96 Z " fill="rgb(53,74,94)"/></g><g id="g164"><path d=" M 323.266 302.147 L 335.594 314.468 L 374.575 275.487 C 383.356 266.698 386.865 254.662 385.19 243.242 C 370.455 268.177 348.987 288.646 323.266 302.147 Z " fill="rgb(53,74,94)"/></g><g id="g168"><path d=" M 112.87 236.44 L 100.557 248.759 L 139.553 287.756 C 148.331 296.542 160.38 300.051 171.804 298.377 C 146.856 283.641 126.381 262.165 112.87 236.44 Z " fill="rgb(53,74,94)"/></g><g id="g172"><path d=" M 95.054 164.091 C 95.054 147.912 97.523 132.313 102.094 117.639 L 84.734 117.639 L 84.745 172.782 C 84.739 185.177 90.74 196.146 99.956 203.034 C 96.756 190.585 95.054 177.537 95.054 164.091 Z " fill="rgb(53,74,94)"/></g><g id="g176"><path d=" M 250.921 23.667 C 173.491 23.667 110.497 86.661 110.497 164.091 C 110.497 241.519 173.491 304.515 250.921 304.515 C 328.351 304.515 391.345 241.519 391.345 164.091 C 391.345 86.661 328.351 23.667 250.921 23.667 Z  M 250.921 314.003 C 168.258 314.003 101.007 246.754 101.007 164.091 C 101.007 81.428 168.258 14.177 250.921 14.177 C 333.586 14.177 400.835 81.428 400.835 164.091 C 400.835 246.754 333.586 314.003 250.921 314.003 Z " fill="rgb(0,159,227)"/></g></g></g></svg>